<svg width="63" height="63" viewBox="0 0 63 63" fill="none" xmlns="http://www.w3.org/2000/svg">
<path d="M8.60748 22.8873L12.0523 25.1941C12.1264 25.2438 12.0913 25.3566 12.0022 25.3525C10.2761 25.2728 8.48131 24.5289 7.69767 24.1122C7.65514 24.0896 7.60208 24.1037 7.57727 24.145C5.53698 27.5403 6.27798 32.2496 6.92537 34.2544C6.93734 34.2914 6.97141 34.3147 7.01035 34.3147H10.8013C10.8931 34.3147 10.9263 34.4358 10.8474 34.4827L7.67964 36.366C7.64545 36.3863 7.62848 36.4263 7.63819 36.4649C8.38271 39.421 10.2482 42.7217 11.1118 44.0398C11.1238 44.0582 11.142 44.0707 11.1632 44.0766C12.6515 44.4888 13.3833 45.2062 13.61 45.5826C13.6359 45.6255 13.6899 45.6446 13.735 45.6229L16.6071 44.2446C16.6943 44.2028 16.7774 44.3088 16.7158 44.3835L14.1793 47.4613C14.1584 47.4866 14.152 47.5195 14.1648 47.5498C15.3247 50.2828 24.1563 54.4952 28.5289 56.3025C28.5739 56.3211 28.6231 56.3005 28.6432 56.2561C29.2898 54.8313 30.5153 52.3792 30.5153 53.3908V56.2587C30.5153 56.303 30.5483 56.3404 30.5921 56.3473C39.8372 57.8187 46.1429 53.0242 48.1951 50.3811C48.2216 50.347 48.2184 50.3006 48.1896 50.2683L47.8255 49.8601C47.7859 49.8156 47.7993 49.7456 47.8512 49.7164C48.8992 49.126 50.3178 47.363 50.9594 46.4672C50.9873 46.4283 50.9793 46.375 50.9419 46.3451L50.193 45.748C50.1421 45.7075 50.1495 45.6281 50.2069 45.5976L50.9102 45.2238C50.9609 45.1968 50.9739 45.1301 50.9371 45.0861L50.2093 44.2157C50.1602 44.1569 50.202 44.0674 50.2786 44.0674H52.2505C52.2818 44.0674 52.3116 44.0501 52.328 44.0235C58.3273 34.307 56.7909 31.727 55.1318 24.0713C53.8077 17.9618 48.3848 13.4548 45.8081 11.9443C45.7878 11.9324 45.7654 11.9295 45.7426 11.9353C43.8917 12.409 41.055 14.1173 39.6353 15.0644C39.56 15.1146 39.4644 15.0358 39.5001 14.9527C39.9106 13.9956 40.6396 12.2858 41.0389 11.3131C41.4486 10.3149 41.6092 9.6943 41.6473 9.46097C41.6524 9.43019 41.639 9.39956 41.6144 9.38033C35.7301 4.76965 28.4778 6.23719 25.5551 7.56033C25.5385 7.56785 25.5256 7.57969 25.5163 7.59537C24.6398 9.07218 24.4171 11.3906 24.4104 12.7897C24.41 12.8936 24.2447 12.9257 24.206 12.8292C23.4836 11.0304 22.0573 8.31527 20.7303 8.49161C18.8841 8.73696 16.2378 10.7611 12.2992 15.2388C9.17762 18.7875 8.85863 20.5022 9.09232 20.9314C9.09678 20.9396 9.10263 20.9463 9.10965 20.9524L10.9492 22.5637C11.0119 22.6186 10.9731 22.722 10.8897 22.722H8.65773C8.56847 22.722 8.53332 22.8376 8.60748 22.8873Z" stroke="black" stroke-width="0.618145"/>
<path d="M28.0193 25.5143C28.0959 24.5947 28.3933 23.6755 28.3933 22.7714C28.3933 22.4289 28.4557 22.1237 28.4557 21.7878C28.4557 21.2345 28.8297 20.7119 28.8297 20.1531C28.8297 19.7576 28.8909 19.442 29.0652 19.0933C29.0889 19.0459 29.0516 18.9275 29.1137 18.9098C29.1694 18.8939 29.2686 18.9338 29.3146 18.8925C29.6403 18.5993 29.8397 18.1149 30.1388 17.7842C30.855 16.9927 31.7598 16.4989 32.8471 16.3539C33.3579 16.2858 33.9061 16.3193 34.3779 16.5028C34.6927 16.6252 34.9649 16.7645 35.2506 16.9392C35.44 17.0549 35.8871 17.2495 35.9987 17.4448C36.15 17.7096 36.496 17.8541 36.5563 18.186C36.6574 18.7418 36.6844 19.2491 36.6844 19.8206C36.6844 20.2439 36.7904 20.7276 36.3658 20.9635C35.3018 21.5546 34.0074 21.708 32.8575 22.0579C32.2184 22.2524 31.4081 22.5194 30.731 22.3904C30.0344 22.2577 29.4457 21.9218 28.989 21.3999C28.811 21.1964 28.9561 20.2475 28.7674 20.1531" stroke="black" stroke-width="0.618145" stroke-linecap="round"/>
<path d="M36.3105 20.7769C36.5427 20.9602 36.6799 21.3364 36.8439 21.5873C36.9201 21.7039 37.0423 21.8961 37.0586 22.0375C37.094 22.3441 37.4327 22.5834 37.4327 22.9241C37.4327 23.23 37.7664 23.5255 37.8102 23.8315C37.8388 24.0321 37.9937 24.166 37.9937 24.3925" stroke="black" stroke-width="0.618145" stroke-linecap="round"/>
<path d="M27.9565 25.3903C28.0334 25.6594 28.2685 25.7927 28.4483 25.9825C28.538 26.0772 28.5571 26.2008 28.6423 26.2908C28.8381 26.4975 29.1145 26.6179 29.3245 26.793C29.7171 27.1201 30.3797 27.233 30.8484 27.4164C31.451 27.6521 32.049 28.0086 32.6943 28.0086C33.2707 28.0086 33.7684 27.8513 34.3151 27.7107C34.5708 27.645 34.828 27.5822 35.0771 27.496C35.2293 27.4433 35.6006 27.3302 35.6901 27.2259C35.7583 27.1463 35.8602 27.1777 35.9221 27.122C35.9965 27.055 36.0504 26.9353 36.123 26.8588C36.2477 26.7271 36.3694 26.5172 36.5005 26.4189C36.6463 26.3096 36.8679 26.1039 36.9611 25.9514C37.0799 25.757 37.3923 25.5666 37.4321 25.328C37.4451 25.25 37.597 25.0768 37.6503 25.0128C37.72 24.9292 37.7438 24.6313 37.7438 24.5176" stroke="black" stroke-width="0.618145" stroke-linecap="round"/>
<path d="M37.7439 24.5176C37.8222 25.5348 37.8514 26.4943 37.6539 27.4822C37.5647 27.928 37.5258 28.4064 37.4288 28.8432C37.4042 28.9539 37.2798 29.1284 37.1829 29.193" stroke="black" stroke-width="0.618145" stroke-linecap="round"/>
<path d="M37.8684 26.2627C37.8865 26.4436 38.0312 26.6541 38.1039 26.8237C38.205 27.0595 38.2424 27.4399 38.2424 27.6965C38.2424 28.1633 38.334 29.0388 37.9931 29.3797" stroke="black" stroke-width="0.618145" stroke-linecap="round"/>
<path d="M38.3674 27.5718C38.5614 27.7657 38.7375 27.9096 38.8661 28.1605C38.9992 28.4201 39.0176 28.9036 39.1917 29.1164C39.3553 29.3164 39.458 29.6568 39.538 29.9268C39.621 30.207 39.7225 30.4453 39.8151 30.7026C39.8993 30.9366 40.0506 31.1925 40.0506 31.4368" stroke="black" stroke-width="0.618145" stroke-linecap="round"/>
<path d="M40.0504 31.437C39.8681 31.6053 39.6133 31.8584 39.3993 31.9842C39.2181 32.0908 39.0608 32.4535 38.866 32.4968C38.6672 32.541 38.5472 32.9531 38.3673 32.9955C38.2175 33.0307 38.0482 33.2526 37.9171 33.3418C37.7432 33.46 37.5597 33.5725 37.3699 33.6674C37.2808 33.7119 37.2156 33.7347 37.117 33.747C36.9402 33.7691 36.8489 33.9333 36.6841 33.9791C36.2124 34.1101 35.661 33.9306 35.188 33.9306" stroke="black" stroke-width="0.618145" stroke-linecap="round"/>
<path d="M41.1102 30.377C41.1102 31.656 41.4975 33.6053 40.4868 34.616" stroke="black" stroke-width="0.618145" stroke-linecap="round"/>
<path d="M39.6139 32.1851C39.6139 32.8014 39.4578 33.3705 39.4234 33.9721C39.4069 34.262 39.3022 34.5463 39.3022 34.8345C39.3022 35.0581 39.1901 35.2186 39.1775 35.4267C39.1711 35.5332 38.9578 36.1233 38.8935 36.2059C38.614 36.5654 38.4243 37.1271 38.2147 37.5462C38.1104 37.7549 37.9913 37.9365 37.8684 38.1385C37.7496 38.3336 37.5047 38.4777 37.4182 38.6822C37.2719 39.028 36.9385 39.5175 36.6251 39.7004C36.5468 39.7461 36.4564 39.9836 36.3757 40.071C36.2768 40.1781 36.1752 40.2646 36.0744 40.3653C35.9305 40.5092 35.6987 40.6592 35.4995 40.7255" stroke="black" stroke-width="0.618145" stroke-linecap="round"/>
<path d="M27.6451 23.894C27.4596 23.9497 27.4269 24.3527 27.2987 24.3893C27.2078 24.4153 27.0965 24.592 27.084 24.7045C27.0582 24.9372 26.652 25.3094 26.8347 25.5149C27.222 25.9506 27.4336 26.5789 27.8113 27.0387C28.2819 27.6116 28.7566 28.1906 29.4252 28.5383C29.7275 28.6955 30.2938 28.7537 30.388 29.1305" stroke="black" stroke-width="0.618145" stroke-linecap="round"/>
<path d="M32.2581 29.6912C32.5215 29.7152 32.7414 29.8159 33.0061 29.8159C33.2058 29.8159 33.4056 29.8159 33.6053 29.8159C34.0849 29.8159 34.4673 29.6289 34.9386 29.6289" stroke="black" stroke-width="0.618145" stroke-linecap="round"/>
<path d="M26.2738 25.4526C26.1496 25.7508 25.628 25.8295 25.5258 26.1107C25.4239 26.3907 25.0965 26.564 24.9682 26.8206C24.8543 27.0484 24.6385 27.2787 24.4937 27.496C24.3964 27.642 24.2271 27.7382 24.1543 27.8839" stroke="black" stroke-width="0.618145" stroke-linecap="round"/>
<path d="M27.2707 27.3222C26.6401 27.3222 25.9702 27.2417 25.3659 27.4469C24.9066 27.6029 24.464 27.9191 23.9945 28.0045C23.7093 28.0563 23.5117 28.0497 23.281 28.2573C23.068 28.4491 22.7713 28.6923 22.5295 28.8495C22.2571 29.0266 22.1212 29.364 21.8749 29.5179C21.6973 29.629 21.8472 29.4596 21.8472 29.6288C21.8472 29.974 21.914 30.4946 22.0481 30.8132C22.2437 31.2777 22.3908 31.8555 22.7546 32.2193C23.5557 33.0204 24.3624 34.1172 25.5876 34.1172" stroke="black" stroke-width="0.618145" stroke-linecap="round"/>
<path d="M24.0918 28.3823C24.0918 29.357 24.947 30.464 25.6814 31.0352C26.0561 31.3266 26.298 31.624 26.7724 31.624C27.0349 31.624 27.3748 31.3772 27.5482 31.1945C27.9579 30.7626 28.3293 30.0702 28.5179 29.5044" stroke="black" stroke-width="0.618145" stroke-linecap="round"/>
<path d="M25.3386 32.1227C24.9143 32.2076 24.8377 33.4942 25.3698 33.4942C25.8217 33.4942 26.0807 33.1588 26.3984 32.8847C26.654 32.6642 26.7942 32.3637 27.0218 32.1227C27.1067 32.0328 27.2857 31.9066 27.3335 31.811" stroke="black" stroke-width="0.618145" stroke-linecap="round"/>
<path d="M28.9543 31.0005C29.0521 31.4891 29.6639 31.7625 29.8894 32.1572C29.9648 32.289 30.1553 32.4035 30.2635 32.5243C30.3954 32.6718 30.4836 32.8552 30.6237 33.0092C31.1216 33.557 31.6012 34.0424 32.2098 34.4638C32.5242 34.6814 32.8999 34.9291 33.1934 35.1807C33.3656 35.3283 33.5365 35.4919 33.7198 35.5997C33.8644 35.6848 34.1245 36.0339 34.2532 36.05C34.5375 36.0855 35.0428 36.5152 35.2818 36.7011C35.5353 36.8983 35.8715 37.1097 36.1857 37.1097" stroke="black" stroke-width="0.618145" stroke-linecap="round"/>
<path d="M25.7749 34.8657C26.0703 35.1316 26.3445 35.3944 26.6788 35.6173C26.9226 35.7798 27.2942 36.0041 27.4927 36.2026C27.6317 36.3416 27.8561 36.398 28.0157 36.5177C28.1156 36.5926 28.1442 36.5981 28.2685 36.6112C28.3703 36.6219 28.4239 36.779 28.5178 36.8259C28.942 37.038 29.3114 37.3817 29.7369 37.6086C30.2133 37.8627 30.6011 38.3002 31.0599 38.5922C31.4435 38.8364 31.8237 39.0629 32.2235 39.2572C32.6582 39.4683 33.1402 39.7024 33.6296 39.7282C33.9862 39.7469 34.3153 39.9775 34.6894 39.9775" stroke="black" stroke-width="0.618145" stroke-linecap="round"/>
<path d="M21.4734 30.6265C21.4734 31.2126 21.6938 31.9524 21.9756 32.4689C22.0793 32.6591 22.2761 32.9892 22.4396 33.12C22.6256 33.2688 22.6821 33.6747 22.9349 33.7469C23.0557 33.7814 23.4129 34.2259 23.4821 34.3391C23.6541 34.6205 24.073 34.7573 24.2787 35.0387C24.4773 35.3106 24.8727 35.5605 25.1514 35.7244C25.3353 35.8326 25.6408 35.9597 25.7125 36.1747" stroke="black" stroke-width="0.618145" stroke-linecap="round"/>
<path d="M21.8474 33.8682C22.2164 34.2372 22.3126 34.7915 22.6578 35.1773C22.9751 35.5319 23.1666 35.9305 23.5617 36.2059C24.0632 36.5554 24.5356 36.9131 25.0579 37.2345C25.3606 37.4208 25.6121 37.7152 25.8718 37.9548C26.1217 38.1856 26.505 38.3761 26.8068 38.5298C27.4692 38.8669 28.1188 39.0733 28.8156 39.3055C29.2621 39.4544 29.7262 39.5287 30.1732 39.6934C31.0279 40.0083 32.0465 39.9028 32.8191 40.2891" stroke="black" stroke-width="0.618145" stroke-linecap="round"/>
<path d="M31.0737 33.2445C31.3832 33.2961 31.5939 33.3692 31.9153 33.3692C32.1335 33.3692 32.3517 33.3692 32.5699 33.3692C32.8686 33.3692 33.5515 33.2881 33.7682 33.0714C33.8423 32.9973 34.1652 32.9131 34.1872 32.8359C34.229 32.6897 34.4512 32.5624 34.5509 32.4826C34.8018 32.2819 34.6206 32.8503 34.5959 32.9294C34.5155 33.1868 34.547 33.4012 34.4089 33.6497C34.2312 33.9695 34.218 34.4465 34.3119 34.7753C34.4296 35.1873 35.2851 35.3017 35.6245 35.3017C35.7433 35.3017 36.5144 35.0972 36.5457 35.1286C36.6557 35.2386 35.8455 35.8972 35.7526 35.9494C35.3839 36.1568 35.0048 36.3615 34.5647 36.3615" stroke="black" stroke-width="0.618145" stroke-linecap="round"/>
<path d="M37.3078 27.0103C37.2694 27.2216 37.0744 27.4206 36.9338 27.5436C36.7149 27.7351 36.5261 27.9167 36.3104 28.1324C35.9523 28.4905 35.6203 28.6311 35.126 28.6311" stroke="black" stroke-width="0.618145" stroke-linecap="round"/>
</svg>
